:SAMPLES-PER-SECOND 30
:FULLY-SPECIFIED
:DEGREES
32
root  -2.84543 40.9037 0.558213 -175.35 -88.6083 173.922
RightUpLeg  2.92166 -0.862268 -1.32821
RightLeg  0.830261 -16.8649 -0.937664
RightFoot  -1.09073 -0.287281 3.11126
RightToes  -3.13006e-008 1.75238e-005 3.56266e-009
Spine  -3.67997 0.0353358 -0.00658276
Spine1  8.47385 -0.378499 1.4614
HEad  -5.41865 -3.86289 2.90273
LeftShoulder1  0.668763 -0.185222 -10.8795
LeftArm  -62.19 8.05974 -9.81515
LeftForeArm  9.14035 -35.9773 -7.61693
LeftHand  -0.237349 2.81852 10.4075
RightShoulder  0.693313 0.313037 11.0228
RightArm  -62.0645 -1.03501 4.32193
RightForeArm  -14.0628 32.3532 7.88926
RightHand  -0.293009 4.24648 -3.74527
LeftUpLeg  4.20307 0.974066 1.22923
LeftLeg  -0.455506 14.2984 -0.498309
LeftFoot  -1.88344 0.148655 -1.64989
LeftToes  4.78685e-008 1.46778e-008 1.34523e-009
33
root  -2.81878 40.9046 0.563731 -175.207 -88.5423 173.549
RightUpLeg  3.11138 -0.944745 -1.38465
RightLeg  0.876875 -16.637 -0.935732
RightFoot  -1.1052 -0.290838 3.15426
RightToes  -3.13006e-008 1.75238e-005 3.56266e-009
Spine  -4.11841 0.206785 0.110946
Spine1  9.09898 -0.170033 1.32155
HEad  -5.16091 -4.0623 3.52636
LeftShoulder1  0.787858 -0.749822 -11.334
LeftArm  -61.7433 8.09191 -11.2436
LeftForeArm  8.4379 -45.3018 -10.7515
LeftHand  -0.273179 2.64786 11.254
RightShoulder  0.793756 0.726621 11.7044
RightArm  -64.1174 -0.679048 4.78034
RightForeArm  -17.8074 38.3195 9.85665
RightHand  -0.623126 4.97646 -7.2924
LeftUpLeg  4.37919 0.974489 1.20395
LeftLeg  -0.372159 14.3637 -0.469149
LeftFoot  -1.93135 0.151649 -1.69643
LeftToes  4.78685e-008 1.46778e-008 1.34523e-009
34
root  -2.78327 40.9083 0.558003 -176.762 -88.5575 174.841
RightUpLeg  3.51561 -1.02316 -1.38181
RightLeg  0.533543 -16.578 -0.779238
RightFoot  -0.994262 -0.287924 3.09172
RightToes  -3.13006e-008 1.75238e-005 3.56266e-009
Spine  -4.77708 0.216782 -0.221312
Spine1  10.1388 -0.266929 1.78717
HEad  -5.33149 -3.82134 3.42923
LeftShoulder1  0.826766 -0.968312 -11.2957
LeftArm  -62.4599 7.1127 -12.9677
LeftForeArm  8.50398 -53.6602 -14.6907
LeftHand  -0.37463 1.82884 12.0922
RightShoulder  0.808507 0.795473 11.7353
RightArm  -65.9556 0.775855 5.41759
RightForeArm  -18.5054 44.4571 12.1344
RightHand  -0.788918 5.98746 -8.36283
LeftUpLeg  4.58401 1.04213 1.27239
LeftLeg  -0.339288 14.2543 -0.46833
LeftFoot  -1.90864 0.15155 -1.69489
LeftToes  4.78685e-008 1.46778e-008 1.34523e-009
35
root  -2.75144 40.9116 0.553585 -175.534 -88.6632 173.421
RightUpLeg  3.77698 -1.13152 -1.44081
RightLeg  0.337381 -16.5685 -0.675012
RightFoot  -0.884293 -0.290602 3.11037
RightToes  -3.13006e-008 1.75238e-005 3.56266e-009
Spine  -4.93133 0.211705 -0.415131
Spine1  9.98785 -0.284594 1.93566
HEad  -5.03835 -4.05016 3.69171
LeftShoulder1  0.902467 -1.40491 -11.1669
LeftArm  -63.7291 5.33153 -14.8069
LeftForeArm  11.5745 -60.8065 -19.5311
LeftHand  -0.458399 1.4715 13.4987
RightShoulder  0.934807 1.42507 11.914
RightArm  -66.8848 1.64536 5.61134
RightForeArm  -17.6035 50.8695 15.1026
RightHand  -0.98492 6.28731 -10.0744
LeftUpLeg  4.70079 1.02503 1.25118
LeftLeg  -0.274685 14.1775 -0.434878
LeftFoot  -1.88958 0.156065 -1.76509
LeftToes  4.78685e-008 1.46778e-008 1.34523e-009
36
root  -2.71267 40.9126 0.553491 -173.719 -88.8548 171.578
RightUpLeg  3.71349 -1.21355 -1.4959
RightLeg  0.449116 -16.7065 -0.650144
RightFoot  -0.865629 -0.300112 3.202
RightToes  -3.13006e-008 1.75238e-005 3.56266e-009
Spine  -4.88316 0.173187 -0.762146
Spine1  9.38028 -0.400807 2.3807
HEad  -4.5138 -3.89871 3.62767
LeftShoulder1  1.0945 -2.32659 -11.6194
LeftArm  -63.4099 4.18979 -15.5138
LeftForeArm  18.2524 -66.7999 -25.6382
LeftHand  -0.514892 1.41385 15.0302
RightShoulder  0.924046 1.42216 11.6841
RightArm  -67.1268 2.67231 6.62288
RightForeArm  -14.7898 57.2044 18.9678
RightHand  -1.2104 6.93441 -11.7054
LeftUpLeg  4.56845 0.988985 1.23288
LeftLeg  -0.116181 14.0605 -0.383992
LeftFoot  -1.91122 0.160533 -1.83456
LeftToes  4.78685e-008 1.46778e-008 1.34523e-009
37
root  -2.66904 40.9107 0.556149 -171.903 -89.2092 169.758
RightUpLeg  3.65444 -1.29299 -1.52282
RightLeg  0.543694 -16.9201 -0.593618
RightFoot  -0.858223 -0.29901 3.15798
RightToes  -3.13006e-008 1.75238e-005 3.56266e-009
Spine  -4.94504 -0.167308 -1.04258
Spine1  8.99611 -0.799949 2.67113
HEad  -4.15877 -3.24781 3.49947
LeftShoulder1  1.21107 -2.91307 -11.7306
LeftArm  -62.7732 3.49766 -16.8147
LeftForeArm  28.3903 -71.7232 -33.6298
LeftHand  -0.519041 1.70825 16.158
RightShoulder  0.962894 1.67308 11.4897
RightArm  -66.0075 3.44213 7.96426
RightForeArm  -10.0484 62.6016 23.5845
RightHand  -1.26124 7.04683 -12.0672
LeftUpLeg  4.35272 0.930603 1.22672
LeftLeg  0.114835 13.7669 -0.271899
LeftFoot  -1.9402 0.160353 -1.83176
LeftToes  4.78685e-008 1.46778e-008 1.34523e-009
